<svg width="24" height="24" viewBox="0 0 24 24" fill="none" xmlns="http://www.w3.org/2000/svg">
  <!--! Font Awesome Free 6.2.0 by @fontawesome - https://fontawesome.com License - https://fontawesome.com/license/free (Icons: CC BY 4.0, Fonts: SIL OFL 1.1, Code: MIT License) Copyright 2022 Fonticons, Inc. -->
  <path
    d="M20.67 12.807c.44-.446.44-1.171 0-1.618l-4.5-4.571a1.114 1.114 0 0 0-1.593 0 1.157 1.157 0 0 0 0 1.618l2.581 2.621H9.75c-.622 0-1.125.51-1.125 1.143 0 .632.503 1.143 1.125 1.143h7.408l-2.58 2.621a1.157 1.157 0 0 0 0 1.618c.439.447 1.153.447 1.592 0l4.5-4.571v-.004ZM8.625 6.286c.623 0 1.125-.511 1.125-1.143S9.248 4 8.625 4h-2.25C4.512 4 3 5.536 3 7.429v9.142C3 18.464 4.512 20 6.375 20h2.25c.623 0 1.125-.51 1.125-1.143 0-.632-.502-1.143-1.125-1.143h-2.25c-.622 0-1.125-.51-1.125-1.143V7.43c0-.633.503-1.143 1.125-1.143h2.25Z"
    fill="currentColor"/>
</svg>
