<svg width="24" height="24" viewBox="0 0 24 24" fill="none" xmlns="http://www.w3.org/2000/svg">
  <!--! Font Awesome Free 6.2.0 by @fontawesome - https://fontawesome.com License - https://fontawesome.com/license/free (Icons: CC BY 4.0, Fonts: SIL OFL 1.1, Code: MIT License) Copyright 2022 Fonticons, Inc. -->
  <path
    d="M9.75 6.5h4.5a.25.25 0 0 1 .25.25V8h-5V6.75a.25.25 0 0 1 .25-.25ZM8 6.75V8H6c-1.103 0-2 .897-2 2v3h16v-3c0-1.103-.897-2-2-2h-2V6.75C16 5.784 15.216 5 14.25 5h-4.5C8.784 5 8 5.784 8 6.75ZM20 14h-6v1c0 .553-.447 1-1 1h-2c-.553 0-1-.447-1-1v-1H4v4c0 1.103.897 2 2 2h12c1.103 0 2-.897 2-2v-4Z"
    fill="currentColor"/>
</svg>
