<svg width="24" height="24" viewBox="0 0 24 24" fill="none" xmlns="http://www.w3.org/2000/svg">
  <path fill-rule="evenodd" clip-rule="evenodd"
        d="M17.573 12.896a1 1 0 0 1 .612.21l2.4 1.858a1 1 0 0 1 0 1.581l-2.4 1.859a1 1 0 0 1-1.612-.79l-.001-.884h-2.005c-1.185 0-1.982-.376-2.76-1.302.176-.222.336-.448.501-.705l.274-.45.3-.53.068-.127.037.054c.535.775.961 1.076 1.485 1.108l.095.003h2.005v-.885a1 1 0 0 1 1-1Zm-.79-6.922a1 1 0 0 1 1.298-.249l.104.071 2.4 1.859a1 1 0 0 1 .094 1.498l-.095.083-2.399 1.858a1 1 0 0 1-1.605-.674l-.007-.116-.001-.884h-2.005l-.095.003c-.524.031-.95.332-1.485 1.108l-.117.173-.202.323-.216.366-.23.412-.696 1.285-.27.47c-1.109 1.868-1.992 2.621-3.541 2.678l-.197.004H5.006c-.556 0-1.006-.437-1.006-.975 0-.5.39-.912.89-.968l.117-.006h2.51l.098-.003c.506-.03.92-.298 1.416-.974l.126-.177.2-.305.212-.349.111-.191.234-.417.415-.774.28-.51.334-.577.065-.107.257-.403c.923-1.393 1.755-1.976 3.087-2.031l.214-.004h2.006v-.884a1 1 0 0 1 .136-.503l.074-.11ZM7.517 7.958c.995 0 1.72.261 2.388.882-.133.201-.268.421-.413.674l-.37.664-.261.487c-.455-.552-.854-.757-1.345-.757h-2.51C4.451 9.908 4 9.472 4 8.934c0-.539.45-.975 1.006-.976h2.512Z"
        fill="currentColor"/>
</svg>
