<svg width="24" height="24" viewBox="0 0 24 24" fill="none" xmlns="http://www.w3.org/2000/svg">
  <!--! Font Awesome Free 6.2.0 by @fontawesome - https://fontawesome.com License - https://fontawesome.com/license/free (Icons: CC BY 4.0, Fonts: SIL OFL 1.1, Code: MIT License) Copyright 2022 Fonticons, Inc. -->
  <path
    d="M6 6C6 5.44687 5.55313 5 5 5C4.44687 5 4 5.44687 4 6V16.5C4 17.8813 5.11875 19 6.5 19H19C19.5531 19 20 18.5531 20 18C20 17.4469 19.5531 17 19 17H6.5C6.225 17 6 16.775 6 16.5V6ZM18.7063 8.70625C19.0969 8.31563 19.0969 7.68125 18.7063 7.29063C18.3156 6.9 17.6812 6.9 17.2906 7.29063L14 10.5844L12.2063 8.79063C11.8156 8.4 11.1813 8.4 10.7906 8.79063L7.29063 12.2906C6.9 12.6812 6.9 13.3156 7.29063 13.7063C7.68125 14.0969 8.31563 14.0969 8.70625 13.7063L11.5 10.9156L13.2937 12.7094C13.6844 13.1 14.3188 13.1 14.7094 12.7094L18.7094 8.70937L18.7063 8.70625Z"
    fill="currentColor"/>
</svg>
