<svg width="24" height="24" viewBox="0 0 24 24" fill="none" xmlns="http://www.w3.org/2000/svg">
  <!--! Font Awesome Free 6.2.0 by @fontawesome - https://fontawesome.com License - https://fontawesome.com/license/free (Icons: CC BY 4.0, Fonts: SIL OFL 1.1, Code: MIT License) Copyright 2022 Fonticons, Inc. -->
  <path
    d="M12.03 11.031V4.486A.48.48 0 0 1 12.504 4c3.652 0 6.613 2.938 6.613 6.563a.48.48 0 0 1-.49.468h-6.595ZM4 11.97c0-3.554 2.66-6.495 6.111-6.964a.445.445 0 0 1 .502.451v6.981l4.62 4.586a.44.44 0 0 1-.043.676A7.073 7.073 0 0 1 11.086 19C7.174 19 4 15.854 4 11.969Zm15.541.469c.275 0 .49.228.455.497a6.99 6.99 0 0 1-2.182 4.17.451.451 0 0 1-.626-.021l-4.685-4.646h7.038Z"
    fill="currentColor"/>
</svg>
