<svg width="24" height="24" viewBox="0 0 24 24" fill="none" xmlns="http://www.w3.org/2000/svg">
  <!--! Font Awesome Free 6.2.0 by @fontawesome - https://fontawesome.com License - https://fontawesome.com/license/free (Icons: CC BY 4.0, Fonts: SIL OFL 1.1, Code: MIT License) Copyright 2022 Fonticons, Inc. -->
  <path
    d="M12 20a8 8 0 0 0 8-8 8 8 0 0 0-8-8 8 8 0 0 0-8 8 8 8 0 0 0 8 8ZM9.306 9.166A1.753 1.753 0 0 1 10.956 8h1.822a1.972 1.972 0 0 1 .981 3.684l-1.009.579A.752.752 0 0 1 12 13a.748.748 0 0 1-.75-.75v-.422c0-.269.144-.515.378-.65l1.384-.794a.473.473 0 0 0-.234-.88h-1.822c-.106 0-.2.065-.234.165l-.013.037a.75.75 0 0 1-1.412-.5l.012-.037-.003-.003ZM13 15a.999.999 0 1 1-2 0 .999.999 0 1 1 2 0Z"
    fill="currentColor"/>
</svg>
