<svg width="24" height="24" viewBox="0 0 24 24" fill="none" xmlns="http://www.w3.org/2000/svg">
  <!--! Font Awesome Free 6.2.0 by @fontawesome - https://fontawesome.com License - https://fontawesome.com/license/free (Icons: CC BY 4.0, Fonts: SIL OFL 1.1, Code: MIT License) Copyright 2022 Fonticons, Inc. -->
  <path
    d="M12 20C16.4187 20 20 16.4187 20 12C20 7.58125 16.4187 4 12 4C7.58125 4 4 7.58125 4 12C4 16.4187 7.58125 20 12 20ZM10.75 14.5H11.5V12.5H10.75C10.3344 12.5 10 12.1656 10 11.75C10 11.3344 10.3344 11 10.75 11H12.25C12.6656 11 13 11.3344 13 11.75V14.5H13.25C13.6656 14.5 14 14.8344 14 15.25C14 15.6656 13.6656 16 13.25 16H10.75C10.3344 16 10 15.6656 10 15.25C10 14.8344 10.3344 14.5 10.75 14.5ZM12 10C11.4469 10 11 9.55313 11 9C11 8.44687 11.4469 8 12 8C12.5531 8 13 8.44687 13 9C13 9.55313 12.5531 10 12 10Z"
    fill="currentColor"/>
</svg>
