<svg width="24" height="24" viewBox="0 0 24 24" fill="none" xmlns="http://www.w3.org/2000/svg">
  <!--! Font Awesome Free 6.2.0 by @fontawesome - https://fontawesome.com License - https://fontawesome.com/license/free (Icons: CC BY 4.0, Fonts: SIL OFL 1.1, Code: MIT License) Copyright 2022 Fonticons, Inc. -->
  <path
    d="M12.014 5c-4.426 0-8.013 2.91-8.013 6.5 0 1.488.623 2.852 1.656 3.944-.466 1.234-1.436 2.277-1.451 2.289A.751.751 0 0 0 4.75 19c1.926 0 3.416-.805 4.355-1.445a9.61 9.61 0 0 0 2.908.445C16.441 18 20 15.09 20 11.5S16.44 5 12.014 5Zm.003 11.5a8.137 8.137 0 0 1-2.453-.379L8.85 15.9l-.61.43a6.704 6.704 0 0 1-1.8.905c.23-.378.45-.804.622-1.257l.333-.875-.646-.684c-.564-.602-1.245-1.6-1.245-2.918 0-2.758 2.919-5 6.511-5s6.512 2.242 6.512 5-2.92 5-6.51 5Z"
    fill="currentColor"/>
</svg>
