<svg width="24" height="24" viewBox="0 0 24 24" fill="none" xmlns="http://www.w3.org/2000/svg">
  <!--! Font Awesome Free 6.2.0 by @fontawesome - https://fontawesome.com License - https://fontawesome.com/license/free (Icons: CC BY 4.0, Fonts: SIL OFL 1.1, Code: MIT License) Copyright 2022 Fonticons, Inc. -->
  <path
    d="M19.956 9.207a.682.682 0 0 1-.212.77l-1.436 1.23a5.702 5.702 0 0 1 0 1.588l1.436 1.232a.682.682 0 0 1 .212.769 7.543 7.543 0 0 1-.524 1.072l-.156.253a7.978 7.978 0 0 1-.733.975c-.195.225-.52.3-.812.213l-1.847-.553a6.48 6.48 0 0 1-1.459.793l-.414 1.785a.73.73 0 0 1-.604.557 9.074 9.074 0 0 1-2.818 0 .73.73 0 0 1-.603-.557L9.57 17.55a6.48 6.48 0 0 1-1.458-.793l-1.844.556a.786.786 0 0 1-.812-.213 7.967 7.967 0 0 1-.733-.975l-.156-.253a7.548 7.548 0 0 1-.524-1.072.682.682 0 0 1 .213-.769L5.692 12.8a5.707 5.707 0 0 1 0-1.59L4.257 9.975a.682.682 0 0 1-.213-.769c.146-.372.322-.728.524-1.072l.156-.253c.219-.344.464-.669.733-.975.195-.225.52-.3.812-.213l1.847.554c.444-.322.935-.591 1.459-.794l.414-1.785a.73.73 0 0 1 .604-.556 9.077 9.077 0 0 1 2.818-.003.73.73 0 0 1 .603.556l.415 1.784a6.485 6.485 0 0 1 1.458.794l1.847-.553a.787.787 0 0 1 .813.213c.268.306.514.631.732.975l.156.253c.202.344.378.7.524 1.072l-.003.003Zm-7.954 5.295c1.465 0 2.652-1.119 2.652-2.5 0-1.382-1.187-2.5-2.652-2.5-1.466 0-2.653 1.118-2.653 2.5 0 1.381 1.187 2.5 2.653 2.5Z"
    fill="currentColor"/>
</svg>
