<svg width="24" height="24" viewBox="0 0 24 24" fill="none" xmlns="http://www.w3.org/2000/svg">
  <!--! Font Awesome Free 6.2.0 by @fontawesome - https://fontawesome.com License - https://fontawesome.com/license/free (Icons: CC BY 4.0, Fonts: SIL OFL 1.1, Code: MIT License) Copyright 2022 Fonticons, Inc. -->
  <path
    d="M19.76 12.55a.748.748 0 0 0 0-1.1l-3.5-3.25a.75.75 0 0 0-1.26.55v1.75H9V8.75a.75.75 0 0 0-1.26-.55l-3.5 3.25a.752.752 0 0 0 0 1.1l3.5 3.25A.75.75 0 0 0 9 15.25V13.5h6v1.75a.75.75 0 0 0 1.26.55l3.5-3.25Z"
    fill="currentColor"/>
</svg>
