<svg width="24" height="24" viewBox="0 0 24 24" fill="none" xmlns="http://www.w3.org/2000/svg">
  <!--! Font Awesome Free 6.2.0 by @fontawesome - https://fontawesome.com License - https://fontawesome.com/license/free (Icons: CC BY 4.0, Fonts: SIL OFL 1.1, Code: MIT License) Copyright 2022 Fonticons, Inc. -->
  <path
    d="M17 10.5c0 1.435-.465 2.76-1.25 3.835l3.957 3.96a1.001 1.001 0 0 1-1.416 1.415l-3.956-3.96A6.463 6.463 0 0 1 10.5 17 6.5 6.5 0 0 1 4 10.5 6.5 6.5 0 0 1 10.5 4a6.5 6.5 0 0 1 6.5 6.5ZM10.5 15a4.501 4.501 0 0 0 0-9 4.501 4.501 0 0 0 0 9Z"
    fill="currentColor"/>
</svg>
