<svg width="24" height="24" viewBox="0 0 24 24" fill="none" xmlns="http://www.w3.org/2000/svg">
  <path fill-rule="evenodd" clip-rule="evenodd"
        d="M10.3 18.202c0-2.486.444-3.293 2.222-4.368 1.841-1.142 3.112-1.008 5.017.605 2.159 1.814 2.222 4.77.063 6.988-1.905 2.015-3.429 2.082-5.652.268-1.143-.94-1.65-2.015-1.65-3.493Zm6.985-.135c0-.806-.318-1.747-.762-2.217-1.143-1.21-2.731-1.008-4.001.537-1.08 1.21-1.08 1.412-.064 3.024 1.715 2.688 4.827 1.881 4.827-1.344ZM1.027 8.527c-.19.537.635 2.62 1.779 4.77 1.587 2.822 2.413 3.762 3.365 3.628 1.46-.201 5.462-6.92 4.954-8.331-.445-1.277-9.59-1.344-10.098-.067ZM9.03 9.602c0 .671-2.54 5.442-2.858 5.442-.38 0-2.857-4.569-2.857-5.308 0-.403 1.143-.74 2.857-.74 1.588 0 2.858.27 2.858.606ZM14.3 1.404c-.572.202-.826 1.747-.826 4.233 0 4.502.762 5.375 4.763 5.375 3.874 0 4.763-.873 4.763-4.904 0-1.949-.317-3.897-.762-4.368-.762-.806-6.35-1.007-7.938-.336Zm6.795 7.593H15.38V2.95h5.715v6.047Z"
        fill="currentColor"/>
</svg>
