<svg width="24" height="24" viewBox="0 0 24 24" fill="none" xmlns="http://www.w3.org/2000/svg">
  <path fill-rule="evenodd" clip-rule="evenodd"
        d="M12 4a8 8 0 1 1 0 16 8 8 0 0 1 0-16Zm0 11.077a.592.592 0 0 0-.434.181.592.592 0 0 0-.181.434c0 .169.06.314.18.434.122.121.266.182.435.182a.585.585 0 0 0 .31-.084.643.643 0 0 0 .222-.224.588.588 0 0 0 .083-.308.592.592 0 0 0-.18-.434.592.592 0 0 0-.435-.181Zm.28-7.385c-.452 0-.863.088-1.233.263-.37.175-.667.428-.892.759-.192.284-.31.616-.355.999l-.015.195h1.055c.022-.323.104-.584.247-.784.142-.2.32-.346.531-.439a1.63 1.63 0 0 1 .662-.14c.262 0 .5.054.716.16.214.107.386.26.514.456.129.197.193.43.193.697a1.476 1.476 0 0 1-.427 1.061 2.15 2.15 0 0 1-.444.35 3.645 3.645 0 0 0-.703.53 1.89 1.89 0 0 0-.452.75c-.091.266-.145.609-.162 1.03l-.006.267h1.005v-.05c.006-.338.042-.621.109-.848a1.51 1.51 0 0 1 .322-.589c.111-.124.25-.244.415-.36l.176-.114a2.79 2.79 0 0 0 .63-.509c.174-.191.308-.409.402-.652.093-.243.14-.515.14-.816 0-.427-.1-.807-.3-1.14a2.099 2.099 0 0 0-.845-.789c-.365-.191-.792-.287-1.283-.287Z"
        fill="currentColor"/>
</svg>
