<svg width="24" height="24" viewBox="0 0 24 24" fill="none" xmlns="http://www.w3.org/2000/svg">
  <!--! Font Awesome Free 6.2.0 by @fontawesome - https://fontawesome.com License - https://fontawesome.com/license/free (Icons: CC BY 4.0, Fonts: SIL OFL 1.1, Code: MIT License) Copyright 2022 Fonticons, Inc. -->
  <path
    d="M6.457 4.15662C6.16014 3.92538 5.73829 3.9535 5.46955 4.21911L4.21962 5.46904C3.95401 5.73465 3.92589 6.15651 4.154 6.45649L6.65386 9.70631C6.79448 9.89068 7.01634 10 7.24758 10H8.93811L12.3442 13.4061C11.8848 14.3123 12.0317 15.4497 12.791 16.206L16.2908 19.7058C16.6814 20.0964 17.3158 20.0964 17.7064 19.7058L19.7063 17.7059C20.0969 17.3153 20.0969 16.6809 19.7063 16.2903L16.2065 12.7905C15.4503 12.0343 14.3128 11.8843 13.4066 12.3437L10.0006 8.9376V7.2502C10.0006 7.01583 9.89118 6.7971 9.70682 6.65648L6.457 4.15662ZM4.62273 16.3778C4.22587 16.7747 4.00089 17.3153 4.00089 17.8777C4.00089 19.0495 4.95083 19.9995 6.12264 19.9995C6.68511 19.9995 7.22571 19.7745 7.62256 19.3777L11.3036 15.6966C11.0599 15.0435 11.0224 14.3342 11.1911 13.6623L9.26309 11.7343L4.62273 16.3778ZM20 8.50013C20 8.17202 19.9656 7.85329 19.9 7.54705C19.825 7.19707 19.3969 7.10645 19.1438 7.35957L17.147 9.35633C17.0533 9.45007 16.9252 9.5032 16.7939 9.5032H15.0003C14.7253 9.5032 14.5003 9.27821 14.5003 9.00322V7.20645C14.5003 7.07521 14.5534 6.94709 14.6472 6.85334L16.6439 4.85658C16.897 4.60347 16.8064 4.17537 16.4564 4.10037C16.1471 4.03475 15.8284 4.00038 15.5002 4.00038C13.016 4.00038 11.0005 6.01589 11.0005 8.50013V8.52513L13.666 11.1906C14.7909 10.9062 16.0346 11.2062 16.9158 12.0874L17.4064 12.578C18.9376 11.8593 20 10.3032 20 8.50013ZM7.25071 17.4996C7.25071 17.9152 6.91635 18.2496 6.50075 18.2496C6.08515 18.2496 5.75079 17.9152 5.75079 17.4996C5.75079 17.084 6.08515 16.7497 6.50075 16.7497C6.91635 16.7497 7.25071 17.084 7.25071 17.4996Z"
    fill="currentColor"/>
</svg>
