<svg width="24" height="24" viewBox="0 0 24 24" fill="none" xmlns="http://www.w3.org/2000/svg">
  <!--! Font Awesome Free 6.2.0 by @fontawesome - https://fontawesome.com License - https://fontawesome.com/license/free (Icons: CC BY 4.0, Fonts: SIL OFL 1.1, Code: MIT License) Copyright 2022 Fonticons, Inc. -->
  <path
    d="M16.616 5.077a1.001 1.001 0 0 1 1.09.215l2 2a.998.998 0 0 1 0 1.412l-2 2a.995.995 0 0 1-1.09.215 1 1 0 0 1-.618-.924V9h-1a.993.993 0 0 0-.8.4l-1.325 1.765-1.25-1.665.975-1.3a2.997 2.997 0 0 1 2.4-1.2h1v-1c0-.403.243-.768.618-.924Zm-7.492 7.758 1.25 1.665-.975 1.3a2.997 2.997 0 0 1-2.4 1.2H5a.999.999 0 1 1 0-2h2a.993.993 0 0 0 .8-.4l1.325-1.765Zm8.58 5.873a.995.995 0 0 1-1.09.216 1 1 0 0 1-.62-.925v-1h-.996a2.997 2.997 0 0 1-2.4-1.2L7.8 9.402A.993.993 0 0 0 7 9H5a.999.999 0 1 1 0-2h2c.944 0 1.834.444 2.4 1.2l4.799 6.399c.188.253.484.4.8.4h1v-1a1.003 1.003 0 0 1 1.709-.71l2 2a.998.998 0 0 1 0 1.413l-2 2-.003.005Z"
    fill="currentColor"/>
</svg>
