<svg width="24" height="24" viewBox="0 0 24 24" fill="none" xmlns="http://www.w3.org/2000/svg">
  <path fill-rule="evenodd" clip-rule="evenodd"
        d="m12 19 .238-.004.234-.012.282-.024.175-.021.228-.034.151-.027.236-.049.294-.073.254-.074.276-.092.262-.101.286-.124.265-.128.263-.141.244-.145.145-.093.18-.122.253-.186.117-.092.208-.173c.236-.206.458-.427.665-.662l.045-.035c.369-.259.87-.268 1.253 0 .418.293.52.87.227 1.287l-.059.076c-.299.344-.555.61-.768.799a9 9 0 1 1 .267-13.254 7.8 7.8 0 0 1 .507.546c.335.39.29.98-.1 1.314l-.073.056c-.408.286-.95.254-1.321-.059-.098-.111-.2-.22-.306-.324l-.214-.204-.221-.193-.085-.07-.235-.183-.17-.123-.245-.163-.22-.135-.284-.157-.284-.141-.293-.13-.284-.11-.258-.088-.277-.083-.31-.077-.273-.056-.316-.05-.4-.044-.318-.018L12 5a7 7 0 0 0 0 14Zm1.618-10.782.093.083 3.018 3.028c.35.357.371.908.07 1.289l-3.101 3.093a1.01 1.01 0 0 1-1.414 0 .975.975 0 0 1-.084-1.3l.084-.093 1.329-1.328H9a1 1 0 1 1 0-2h4.595l-1.324-1.32a.975.975 0 0 1 .026-1.394 1.011 1.011 0 0 1 1.321-.058Z"
        fill="currentColor"/>
</svg>
