<svg width="24" height="24" viewBox="0 0 24 24" fill="none" xmlns="http://www.w3.org/2000/svg">
  <!--! Font Awesome Free 6.2.0 by @fontawesome - https://fontawesome.com License - https://fontawesome.com/license/free (Icons: CC BY 4.0, Fonts: SIL OFL 1.1, Code: MIT License) Copyright 2022 Fonticons, Inc. -->
  <path
    d="M10.909 4.335a1.145 1.145 0 0 1 1.617 0l4.571 4.57c.329.33.425.818.247 1.247a1.143 1.143 0 0 1-1.057.707H7.145a1.147 1.147 0 0 1-.81-1.953l4.57-4.571h.004Zm0 15.33-4.571-4.57a1.138 1.138 0 0 1-.247-1.247 1.143 1.143 0 0 1 1.057-.707h9.139a1.147 1.147 0 0 1 .81 1.953l-4.57 4.571a1.144 1.144 0 0 1-1.618 0Z"
    fill="currentColor"/>
</svg>
