<svg width="24" height="24" viewBox="0 0 24 24" fill="none" xmlns="http://www.w3.org/2000/svg">
  <path fill-rule="evenodd" clip-rule="evenodd"
        d="M15.33 12.28a.975.975 0 0 1 1.394.026c.349.367.366.935.058 1.321l-.083.093-4.028 4.018a.975.975 0 0 1-1.289.07l-4.093-4.1a1.01 1.01 0 0 1 0-1.415.975.975 0 0 1 1.3-.083l.093.083L12 15.617l3.33-3.337ZM15.33 10.738a.975.975 0 0 0 1.394-.025c.349-.367.366-.935.058-1.322L16.7 9.3 12.67 5.28a.975.975 0 0 0-1.289-.07L7.29 9.312a1.01 1.01 0 0 0 0 1.415.975.975 0 0 0 1.3.083l.093-.083L12 7.402l3.33 3.336Z"
        fill="currentColor"/>
</svg>
