<svg width="24" height="24" viewBox="0 0 24 24" fill="none" xmlns="http://www.w3.org/2000/svg">
  <!--! Font Awesome Free 6.2.0 by @fontawesome - https://fontawesome.com License - https://fontawesome.com/license/free (Icons: CC BY 4.0, Fonts: SIL OFL 1.1, Code: MIT License) Copyright 2022 Fonticons, Inc. -->
  <path
    d="M9.225 4.553A.996.996 0 0 1 10.119 4h3.762c.378 0 .725.213.894.553L15 5h3a.999.999 0 1 1 0 2H6a.999.999 0 1 1 0-2h3l.225-.447ZM6 8h12v10c0 1.103-.897 2-2 2H8c-1.103 0-2-.897-2-2V8Zm3 2c-.275 0-.5.225-.5.5v7c0 .275.225.5.5.5s.5-.225.5-.5v-7c0-.275-.225-.5-.5-.5Zm3 0c-.275 0-.5.225-.5.5v7c0 .275.225.5.5.5s.5-.225.5-.5v-7c0-.275-.225-.5-.5-.5Zm3 0c-.275 0-.5.225-.5.5v7c0 .275.225.5.5.5s.5-.225.5-.5v-7c0-.275-.225-.5-.5-.5Z"
    fill="currentColor"/>
</svg>
