<svg width="24" height="24" viewBox="0 0 24 24" fill="none" xmlns="http://www.w3.org/2000/svg">
  <!--! Font Awesome Free 6.2.0 by @fontawesome - https://fontawesome.com License - https://fontawesome.com/license/free (Icons: CC BY 4.0, Fonts: SIL OFL 1.1, Code: MIT License) Copyright 2022 Fonticons, Inc. -->
  <path
    d="M7.05 9.375c-1.243 0-2.25-.979-2.25-2.188C4.8 5.98 5.807 5 7.05 5s2.25.979 2.25 2.188c0 1.208-1.007 2.187-2.25 2.187Zm10.35 0c-1.243 0-2.25-.979-2.25-2.188C15.15 5.98 16.157 5 17.4 5s2.25.979 2.25 2.188c0 1.208-1.007 2.187-2.25 2.187ZM3 13.168c0-1.611 1.344-2.918 3-2.918h1.202c.447 0 .872.096 1.254.265A3.46 3.46 0 0 0 9.62 13.75H3.6c-.33 0-.6-.262-.6-.582Zm11.4.582h-.02a3.45 3.45 0 0 0 1.164-3.235 3.046 3.046 0 0 1 1.254-.265H18c1.657 0 3.001 1.307 3.001 2.918 0 .322-.27.582-.6.582h-6Zm.3-2.625c0 1.45-1.21 2.625-2.7 2.625-1.49 0-2.7-1.176-2.7-2.625C9.3 9.675 10.51 8.5 12 8.5c1.49 0 2.7 1.176 2.7 2.625ZM6.6 18.27c0-2.013 1.68-3.645 3.75-3.645h3.3c2.07 0 3.75 1.632 3.75 3.645a.74.74 0 0 1-.75.73h-9.3a.74.74 0 0 1-.75-.73Z"
    fill="currentColor"/>
</svg>
