<svg width="129" height="138" viewBox="0 0 129 138" fill="none" xmlns="http://www.w3.org/2000/svg">
  <path
    d="M11.733 131.034a1.5 1.5 0 1 0 2.915.712l-2.915-.712ZM6.4 42.28l1.106 1.014L6.4 42.28Zm107.61 44.56-.98-1.136.98 1.136ZM84.48 5.2l-1.282-.777 1.282.777Zm41.835 13.166a1.5 1.5 0 1 0 .931-2.852l-.931 2.852ZM4.635 109.513a1.5 1.5 0 1 0-2.83.994l2.83-.994Zm7.645 26.277-1.415.497a1.5 1.5 0 0 0 2.673.32l-1.258-.817Zm18.259-25.373a1.5 1.5 0 0 0-2.517-1.634l2.517 1.634ZM13.19 131.39l1.458.355v-.005c.002-.002.002-.006.004-.011l.01-.041.034-.15a59.646 59.646 0 0 0 .528-2.674c.314-1.806.688-4.373.93-7.436.484-6.111.45-14.268-1.673-22.311l-2.9.766c2.005 7.597 2.052 15.385 1.583 21.309a78.079 78.079 0 0 1-.896 7.157 57.019 57.019 0 0 1-.496 2.521l-.03.128-.007.029a.065.065 0 0 1-.002.007v.001s0-.001 0 0l1.457.355Zm1.29-32.273c-1.045-3.96-2.673-8.813-4.323-13.954-1.66-5.17-3.357-10.674-4.59-16.045-1.234-5.38-1.982-10.547-1.782-15.048.2-4.504 1.341-8.181 3.72-10.776l-2.21-2.028c-3.036 3.31-4.29 7.783-4.507 12.671-.217 4.891.595 10.359 1.855 15.852 1.263 5.504 2.995 11.112 4.658 16.291 1.672 5.21 3.26 9.943 4.28 13.803l2.9-.766ZM7.507 43.293c2.633-2.873 5.803-4.153 9.466-4.237 3.724-.087 8 1.066 12.716 3.182 9.445 4.239 20.16 12.109 30.924 20.37C71.3 70.81 82.036 79.4 91.332 84.831c4.65 2.716 9.061 4.718 13.022 5.457 3.998.746 7.695.226 10.637-2.314l-1.961-2.27c-2.038 1.76-4.706 2.273-8.126 1.635-3.457-.645-7.517-2.445-12.058-5.099-9.086-5.308-19.612-13.728-30.407-22.013C51.719 52 40.733 43.907 30.916 39.5c-4.914-2.205-9.66-3.545-14.014-3.445-4.415.102-8.38 1.69-11.608 5.21l2.212 2.027Zm107.485 44.682c3.354-2.895 5.255-6.195 5.941-9.797.68-3.571.141-7.31-1.151-11.074-2.565-7.48-8.245-15.45-14.189-23.13-6.018-7.776-12.307-15.257-16.445-22.002-2.062-3.362-3.516-6.429-4.137-9.151-.615-2.695-.394-4.948.754-6.844l-2.567-1.554c-1.662 2.747-1.845 5.852-1.112 9.065.727 3.185 2.372 6.575 4.505 10.052 4.251 6.93 10.735 14.654 16.629 22.27 5.968 7.71 11.341 15.319 13.725 22.268 1.183 3.45 1.593 6.639 1.041 9.54-.547 2.87-2.06 5.588-4.955 8.087l1.961 2.27ZM85.763 5.977c.96-1.583 2.862-2.267 6.071-1.899 3.179.365 7.131 1.727 11.377 3.555 4.225 1.818 8.603 4.035 12.638 6.04 3.985 1.98 7.7 3.79 10.466 4.693l.931-2.852c-2.514-.821-6.016-2.516-10.062-4.528-3.998-1.987-8.468-4.25-12.787-6.109-4.298-1.85-8.585-3.362-12.22-3.78-3.607-.413-7.094.214-8.98 3.326l2.566 1.554ZM1.805 110.507l9.06 25.78 2.83-.994-9.06-25.78-2.83.994Zm11.734 26.1 17-26.19-2.517-1.634-17 26.19 2.517 1.634Z"
    fill="currentColor"/>
</svg>
