<svg width="24" height="24" viewBox="0 0 24 24" fill="none" xmlns="http://www.w3.org/2000/svg">
  <path fill-rule="evenodd" clip-rule="evenodd"
        d="m18.702 8.232-.1.234-.117.252c-.02.044-.043.089-.065.135l-.227.445-.27.503-.285.51-.29.503-.32.541-.534.884-.393.636-.874 1.388-.732 1.141-1.08 1.654-.288.438c-.496.597-1.441.689-2.08.162l-.106-.095c-.464-.462-.568-1.173-.25-1.786l.053-.092.892-.902 1.096-1.1 1.362-1.342.625-.606.588-.562.812-.761.728-.663.436-.384.396-.339.359-.295.395-.306.269-.193Zm1.498 3.017C21.318 12.882 22 14.844 22 16a1 1 0 0 1-1.993.117L20 16c0-.62-.391-1.833-1.052-2.985l.92-1.29.332-.476ZM12 7.001c1.237 0 2.372.187 3.403.538l-.619.649-.764.822-.161.177A9.022 9.022 0 0 0 12 9c-2.79 0-4.868 1.133-6.329 3.071-.971 1.289-1.598 2.938-1.665 3.787L4 16a1 1 0 1 1-2 0c0-1.248.794-3.434 2.074-5.132C5.898 8.449 8.552 7.001 12 7.001Z"
        fill="currentColor"/>
</svg>
