<svg width="24" height="24" viewBox="0 0 24 24" fill="none" xmlns="http://www.w3.org/2000/svg">
  <path fill-rule="evenodd" clip-rule="evenodd"
        d="M4.963 14.62c.127 0 .253.026.37.074 2.223.926 4.445 1.39 6.667 1.39 2.222 0 4.444-.464 6.667-1.39a.963.963 0 0 1 1.333.89c0 .946-.573 1.8-1.449 2.158-2.184.894-4.367 1.341-6.551 1.341s-4.367-.447-6.551-1.34A2.333 2.333 0 0 1 4 15.582c0-.531.431-.963.963-.963Zm0-5c.127 0 .253.026.37.074 2.223.926 4.445 1.39 6.667 1.39 2.222 0 4.444-.464 6.667-1.39a.963.963 0 0 1 1.333.89c0 .946-.573 1.8-1.449 2.158-2.184.894-4.367 1.341-6.551 1.341s-4.367-.447-6.551-1.34A2.333 2.333 0 0 1 4 10.582c0-.531.431-.963.963-.963ZM12 4c.803 0 1.579.037 2.31.106l.54.057c.09.01.177.022.264.033l.512.075.492.085c.482.09.93.197 1.338.316l.395.123C19.184 5.242 20 5.841 20 6.5s-.816 1.258-2.15 1.705l-.394.123c-.408.12-.857.225-1.338.316l-.492.085-.512.075a20.75 20.75 0 0 1-.263.033l-.54.057C13.579 8.963 12.802 9 12 9c-.803 0-1.579-.037-2.31-.106l-.54-.057c-.09-.01-.177-.022-.264-.033l-.512-.075-.492-.085c-.481-.09-.93-.197-1.338-.316l-.395-.123C4.816 7.758 4 7.159 4 6.5s.816-1.258 2.15-1.705l.394-.123c.408-.12.857-.225 1.338-.316l.492-.085.512-.075.263-.033.54-.057A24.746 24.746 0 0 1 12 4Z"
        fill="currentColor"/>
</svg>
