<svg width="24" height="24" viewBox="0 0 24 24" fill="none" xmlns="http://www.w3.org/2000/svg">
  <path fill-rule="evenodd" clip-rule="evenodd"
        d="M19 18C19 19.1046 18.1046 20 17 20H7C5.89543 20 5 19.1046 5 18V6C5 4.89543 5.89543 4 7 4H15.0008L19 8.00058V18ZM13 6H8C7.48716 6 7.06449 6.38604 7.00673 6.88338L7 7V17C7 17.5128 7.38604 17.9355 7.88338 17.9933L8 18H16C16.5128 18 16.9355 17.614 16.9933 17.1166L17 17V10H14C13.4872 10 13.0645 9.61396 13.0067 9.11662L13 9V6Z"
        fill="currentColor"/>
</svg>
