<svg width="24" height="24" viewBox="0 0 24 24" fill="none" xmlns="http://www.w3.org/2000/svg">
  <path fill-rule="evenodd" clip-rule="evenodd"
        d="M13.198 3a1 1 0 0 1 .976.783l.377 1.696-.011-.004a7.013 7.013 0 0 1 1.83 1.055l1.66-.521a1 1 0 0 1 1.165.454l1.198 2.074a1 1 0 0 1-.19 1.237l-1.28 1.175-.02-.117a7.045 7.045 0 0 1 .007 2.296l.013-.078 1.28 1.176a1 1 0 0 1 .19 1.237l-1.198 2.074a1 1 0 0 1-1.166.454l-1.657-.521c.152-.122.3-.25.442-.385l.412-.425a7.041 7.041 0 0 1-2.378 1.736l-.297.125-.377 1.696a1 1 0 0 1-.976.783h-2.396a1 1 0 0 1-.976-.783l-.378-1.697.011.005a7.013 7.013 0 0 1-1.83-1.055l-1.658.521a1 1 0 0 1-1.166-.454l-1.198-2.074a1 1 0 0 1 .19-1.237l1.28-1.176.015.088a7.05 7.05 0 0 1 .005-2.306l-.02.117-1.28-1.175a1 1 0 0 1-.19-1.237l1.198-2.074a1 1 0 0 1 1.166-.454l1.658.52c-.146.118-.289.241-.426.371l-.4.408a7.04 7.04 0 0 1 2.353-1.706l.292-.122.378-1.697A1 1 0 0 1 10.802 3h2.396ZM12 9a3 3 0 1 0 0 6 3 3 0 0 0 0-6Z"
        fill="currentColor"/>
</svg>
