<svg width="24" height="24" viewBox="0 0 24 24" fill="none" xmlns="http://www.w3.org/2000/svg">
  <path
    d="M14.677 10.863c.992 0 1.925.385 2.626 1.087l.687.687c1.404-.623 2.5-1.87 2.864-3.39.2-.84.187-1.654.007-2.4-.091-.383-.576-.51-.853-.233L17.59 9.032h-2.652V6.41l2.417-2.418c.278-.278.15-.762-.231-.854a5.125 5.125 0 0 0-2.4.007c-1.94.465-3.452 2.113-3.761 4.085-.046.283-.065.57-.058.857l2.904 2.907a2.67 2.67 0 0 1 .868-.132Zm1.831 1.912a2.604 2.604 0 0 0-2.996-.487L9.74 8.544V6.368L5.281 3 3.036 5.214l3.368 4.46H8.58l3.743 3.74a2.605 2.605 0 0 0 .489 2.996l4.105 4.109a1.312 1.312 0 0 0 1.848 0l1.852-1.851a1.312 1.312 0 0 0 0-1.85l-4.109-4.043Zm-5.476.996-2.078-2.073-5.224 5.224a2.367 2.367 0 1 0 3.348 3.348l4.178-4.178c-.309-.73-.41-1.535-.224-2.32Zm-5.75 5.79a.843.843 0 1 1 0-1.685.843.843 0 0 1 0 1.685Z"
    fill="currentColor"/>
</svg>
