<svg width="24" height="24" viewBox="0 0 24 24" fill="none" xmlns="http://www.w3.org/2000/svg">
  <path fill-rule="evenodd" clip-rule="evenodd"
        d="M13 13C15.2091 13 17 14.7909 17 17V18H7V17C7 14.7909 8.79086 13 11 13H13ZM7 12C7.20409 12 7.40343 12.0204 7.59608 12.0592C6.28781 12.9618 5.35653 14.3694 5.08296 16L1 16V15C1 13.3431 2.34315 12 4 12H7ZM20 12C21.6569 12 23 13.3431 23 15V16L18.917 16C18.6434 14.369 17.7117 12.9612 16.4044 12.0595C16.5959 12.0205 16.7956 12 17 12H20ZM12 6C13.6569 6 15 7.34315 15 9C15 10.6569 13.6569 12 12 12C10.3431 12 9 10.6569 9 9C9 7.34315 10.3431 6 12 6ZM5.5 6C6.28689 6 6.98887 6.36355 7.44714 6.93185C7.15958 7.56268 7 8.2627 7 9C7 9.46631 7.06383 9.9177 7.18324 10.3458C6.74078 10.7525 6.14929 11 5.5 11C4.11929 11 3 9.88071 3 8.5C3 7.11929 4.11929 6 5.5 6ZM18.5 6C19.8807 6 21 7.11929 21 8.5C21 9.88071 19.8807 11 18.5 11C17.8507 11 17.2592 10.7525 16.8148 10.3466C16.9362 9.9177 17 9.46631 17 9C17 8.2627 16.8404 7.56268 16.5539 6.93259C17.0111 6.36355 17.7131 6 18.5 6Z"
        fill="currentColor"/>
</svg>
