<svg width="111" height="44" viewBox="0 0 111 44" fill="none" xmlns="http://www.w3.org/2000/svg">
  <path
    d="M3.075 35.934a1.5 1.5 0 1 0 2.312 1.912l-2.312-1.912ZM107.928 7.858a1.5 1.5 0 0 0 1.186-2.756l-1.186 2.756ZM3.031 12.935a1.5 1.5 0 0 0-3 .05l3-.05ZM1.891 34.26l-1.5.025v.002l1.5-.027Zm4.98 5.45.161-1.491h-.001l-.16 1.491Zm21.299 3.811a1.5 1.5 0 0 0 .322-2.982l-.322 2.982ZM4.231 36.89l1.156.956.002-.003.01-.012.045-.053.184-.217c.165-.192.413-.477.74-.845a95.261 95.261 0 0 1 2.892-3.089 121.365 121.365 0 0 1 10.786-9.778c9.197-7.38 21.96-15.365 36.422-18.085l-.554-2.948C40.766 5.666 27.549 13.98 18.169 21.509A124.365 124.365 0 0 0 7.113 31.532a98.225 98.225 0 0 0-2.983 3.187 61.083 61.083 0 0 0-.981 1.127l-.053.064-.015.017-.004.005-.001.001 1.155.957ZM56.468 5.764c29.312-5.514 47.13.23 51.46 2.094l1.186-2.756c-4.869-2.096-23.292-7.912-53.2-2.286l.554 2.948ZM.032 12.985l.36 21.3 3-.05-.36-21.3-3 .05Zm.36 21.302a7.078 7.078 0 0 0 6.32 6.914l.32-2.983a4.078 4.078 0 0 1-3.64-3.985l-3 .054ZM6.71 41.2l21.46 2.32.322-2.982-21.46-2.32L6.71 41.2Z"
    fill="currentColor"
    stroke="currentColor"
  />
</svg>
