<svg xmlns="http://www.w3.org/2000/svg" fill="none" viewBox="0.125 0.125 199.75 199.75" stroke-width=".5" height="400"
     width="400">
  <g id="Product-Loading-01">
    <g id="color 2" fill="#fecfc4">
      <path id="Vector"
            d="M89.911 62.171c-.816-3.042-3.551-3.423-5-2.033-1.862 1.748-1.691 6 .532 7.239a3.047 3.047 0 0 0 4.161-1.387 5.518 5.518 0 0 0 .307-3.819Z"/>
      <path id="Vector_2"
            d="M136.615 84.732c13.8-4.167 23.95-7.283 30.379-9.033-3.185.227-6.211-18.084-3.363-19.133-38.57 10.754-40.584 11.4-43.7 13.243-2.945 1.748-5.928 5.624-18.639 21.679-1.841.615-14.2 5.826-17.233 7.182 1.387 3.971.38 12.369-3.876 16.7a28.927 28.927 0 0 0 6.213 7.163 22.453 22.453 0 0 0 1.558-3.363c.532-1.52 2.09-1.368.779 4.408a13.768 13.768 0 0 1 3.192-1.539c.57-.114 7.467.057 10.678.095 1.5 0 2.2 1.786-6.289 2.2 1.9.342 4.161.7 6.232.969 6.094-.677 11.369-6.517 15.841-13.808 3.763-6.47 7.1-13.178 9.992-20.081-.739 4.05-2 11.683-2.843 14.395l3.04-2.033c4.028 2.622 27.189 17.708 31.312 20.178-2.964-2.156 6.569-17.5 9.69-15.979-6.035-4.794-27.378-19.805-32.963-23.243Z"/>
      <path id="Vector_3" d="m75.431 165.176-3.555.626 1.141 6.474 3.555-.626-1.14-6.474Z"/>
      <path id="Vector_4" d="m80.471 164.298-3.556.629 1.144 6.475 3.556-.628-1.144-6.476Z"/>
      <path id="Vector_5" d="m85.35 163.428-3.556.627 1.141 6.474 3.555-.626-1.14-6.475Z"/>
      <path id="Vector_6" d="m90.308 162.555-3.555.626 1.141 6.475 3.555-.627-1.14-6.474Z"/>
      <path id="Vector_7" d="m95.351 161.671-3.556.628 1.144 6.476 3.556-.629-1.144-6.475Z"/>
      <path id="Vector_8" d="m100.227 160.806-3.555.627 1.141 6.474 3.555-.626-1.141-6.475Z"/>
      <path id="Vector_9" d="m105.186 159.933-3.555.627 1.141 6.474 3.555-.627-1.141-6.474Z"/>
      <path id="Vector_10" d="m110.145 159.059-3.555.627 1.141 6.474 3.556-.627-1.142-6.474Z"/>
      <path id="Vector_11" d="m115.104 158.186-3.555.626 1.141 6.474 3.556-.626-1.142-6.474Z"/>
      <path id="Vector_12" d="m120.063 157.311-3.555.627 1.141 6.474 3.556-.627-1.142-6.474Z"/>
      <path id="Vector_13" d="m125.022 156.437-3.555.627 1.141 6.474 3.556-.626-1.142-6.475Z"/>
    </g>
    <g id="color 1" fill="#6153bd">
      <path id="Vector_14"
            d="M170.566 131.787a5.711 5.711 0 0 0-4.399-4.591 5.723 5.723 0 0 0-2.232-.045l-97.28 17.157.7 1.14H62.38a5.682 5.682 0 0 0-2.679 5.89l1.1 6.327 110.829-19.532-1.064-6.346Zm-23.693 7.486a2.95 2.95 0 0 1-2.721-1.818 2.942 2.942 0 0 1 .639-3.209 2.942 2.942 0 0 1 5.027 2.082 2.951 2.951 0 0 1-.863 2.082 2.951 2.951 0 0 1-2.082.863Zm8.892-1.577a2.95 2.95 0 0 1-2.721-1.818 2.942 2.942 0 0 1 .639-3.209 2.942 2.942 0 0 1 5.027 2.082 2.949 2.949 0 0 1-2.945 2.949v-.004Zm8.892-1.558a2.95 2.95 0 0 1-2.721-1.818 2.942 2.942 0 0 1 .639-3.209 2.942 2.942 0 0 1 5.027 2.082 2.951 2.951 0 0 1-.863 2.082 2.951 2.951 0 0 1-2.082.863Z"/>
      <path id="Vector_15"
            d="M139.216 50.353a70.649 70.649 0 0 0-16.264-21.907 13.872 13.872 0 0 0 6.879 22.942c3.153.763 6.474.397 9.385-1.035Z"/>
      <path id="Vector_16"
            d="M162.529 61.411a10.203 10.203 0 0 0 3.5-1.729c-.607-2.1-1.45-3.245-2.141-3.287-1.379-.083-1.409 3.637-1.359 5.016Z"/>
      <path id="Vector_17"
            d="M168.115 70.778c.4 2.983-.209 4.716-1.14 4.788-.779.06-1.843-1.178-2.774-4.142 1.406-.266 2.699-.494 3.914-.646Z"/>
      <path id="Vector_18"
            d="M169.578 107.866c-.646-.323-2.28.361-4.351 2.7a21.692 21.692 0 0 0 3.99 1.976c1.368-2.396 1.007-4.372.361-4.676Z"/>
      <path id="Vector_19"
            d="M160.173 118.924c-1.1 2.85-.912 4.446-.285 4.9.741.513 2.47-.171 4.047-2.6a20.453 20.453 0 0 0-3.762-2.3Z"/>
      <path id="Vector_20"
            d="M119.285 109.937c1.33-.912 3.667-2.489 6.289-4.256.969-3.116 2.451-11.761 3.078-14.972a207.82 207.82 0 0 1-9.367 19.228Z"/>
      <path id="Vector_21"
            d="M95.155 61.05c.02.836.095 2.2.21 3.876a13.216 13.216 0 0 1-5.758.95 5.519 5.519 0 0 0 .3-3.819c.973 0 4.127-.285 5.248-1.007Z"/>
      <path id="Vector_22"
            d="M96.6 81.1c.095 1.444.19 2.584.228 3.287 1.132-.111 3.434-.489 3.175-1.593-.169-.723-1.462-1.456-3.403-1.694Z"/>
      <path id="Vector_23" d="M85.427 83.261c-1.349-.494-1.936-1.083-2.014-1.6-.13-.855.893-1.33 2.014-1.558v3.158Z"/>
      <path id="Vector_24"
            d="M70.322 140.565c0 2.767-.839 4.452-1.878 4.774-1.587.491-2.522-2.295-2.891-3.938.912-.133 2.66-.437 4.769-.836Z"/>
      <path id="Vector_25"
            d="M67.6 126.781c-1.241-.22-1.926 1.414-2.233 2.631 1.083-.057 2.413-.152 3.876-.266a2.503 2.503 0 0 0-1.643-2.365Z"/>
      <path id="Vector_26"
            d="M73 117.005c-3.724.817-7.239 1.463-9.576 1.9.627-1.558 1.292-3.1 1.957-4.408A41.166 41.166 0 0 0 73 117.005Z"/>
      <path id="Vector_27"
            d="M49.118 72.488A13.278 13.278 0 0 0 32.19 80.6a7 7 0 1 0-9.862 9.826 7.166 7.166 0 0 0 9.887-.971 13.27 13.27 0 0 0 16.447 8.191c-.95-4.5-2.736-7.239-3.363-7.2-3.078.209-3.553-2.869-.608-2.28 1.5.323.114-1.824-1.007-3.211a19.14 19.14 0 0 0 5.244-4.085c6.555 5.32 8.531 9.709 3.952 10.488l-2.546.114a13.626 13.626 0 0 0 5.244 1.159 13.15 13.15 0 0 0 2.413-7.619 13.288 13.288 0 0 0-8.873-12.524Z"/>
    </g>
    <g id="outlines" stroke="#120071">
      <path id="Vector_28" stroke-linecap="round" stroke-linejoin="round"
            d="M62.437 145.41a5.743 5.743 0 0 0-2.679 5.89l4.921 28.044a5.73 5.73 0 0 0 6.631 4.636l99.56-17.537a5.711 5.711 0 0 0 4.591-4.399 5.723 5.723 0 0 0 .045-2.232l-4.921-28.044a5.711 5.711 0 0 0-4.399-4.591 5.724 5.724 0 0 0-2.232-.045l-94.166 16.61"/>
      <path id="Vector_29" stroke-linecap="round" stroke-linejoin="round" d="m60.86 157.646 110.827-19.551"/>
      <path id="Vector_30" stroke-linecap="round" stroke-linejoin="round"
            d="m165.79 147.076-96.344 16.983 1.887 10.703 96.343-16.983-1.886-10.703Z"/>
      <path id="Vector_31" stroke-linecap="round" stroke-linejoin="round"
            d="M139.33 110.64a70.507 70.507 0 0 1-18.543 24.054m22.761-72.637a70.515 70.515 0 1 0-83.809 87.295"/>
      <path id="Vector_32" stroke-linecap="round" stroke-linejoin="round"
            d="M146.018 81.76a71.625 71.625 0 0 1-.646 8.569"/>
      <path id="Vector_33" stroke-linecap="round" stroke-linejoin="round"
            d="M133.098 51.778c7.66 0 13.87-6.21 13.87-13.87 0-7.66-6.21-13.87-13.87-13.87-7.66 0-13.87 6.21-13.87 13.87 0 7.66 6.21 13.87 13.87 13.87Z"/>
      <path id="Vector_34" stroke-linecap="round" stroke-linejoin="round" d="m46.705 49.973 11.438-2.014"/>
      <path id="Vector_35" stroke-linecap="round" stroke-linejoin="round" d="m61.373 66.237-11.438 2.014"/>
      <path id="Vector_36" stroke-linecap="round" stroke-linejoin="round"
            d="M51.626 67.947a12.141 12.141 0 0 1 2.413-9.842 12.143 12.143 0 0 0 2.413-9.842"/>
      <path id="Vector_37" stroke-linecap="round" stroke-linejoin="round"
            d="M59.682 66.522a12.101 12.101 0 0 0-5.605-8.436 12.093 12.093 0 0 1-5.643-8.417"/>
      <path id="Vector_38" stroke-linecap="round" stroke-linejoin="round" d="m169.73 91.374 5.073-.893"/>
      <path id="Vector_39" stroke-linecap="round" stroke-linejoin="round" d="m183.79 88.904 5.073-.893"/>
      <path id="Vector_40" stroke-linecap="round" stroke-linejoin="round" d="m177.615 80.126.893 5.073"/>
      <path id="Vector_41" stroke-linecap="round" stroke-linejoin="round" d="m180.085 94.186.893 5.073"/>
      <path id="Vector_42" stroke-linecap="round" stroke-linejoin="round" d="m171.345 84.116 4.218 2.964"/>
      <path id="Vector_43" stroke-linecap="round" stroke-linejoin="round" d="m183.049 92.305 4.218 2.964"/>
      <path id="Vector_44" stroke-linecap="round" stroke-linejoin="round" d="m184.873 81.741-2.945 4.199"/>
      <path id="Vector_45" stroke-linecap="round" stroke-linejoin="round" d="m176.684 93.426-2.945 4.218"/>
      <path id="Vector_46" stroke-linecap="round" stroke-linejoin="round" d="m36.16 167.013 10.336-14.744"/>
      <path id="Vector_47" stroke-linecap="round" stroke-linejoin="round" d="m33.956 154.473 14.763 10.336"/>
      <path id="Vector_48" stroke-linecap="round" stroke-linejoin="round" d="m150.559 182.346-2.717-1.539 1.539-2.717"/>
      <path id="Vector_49" stroke-linecap="round" stroke-linejoin="round"
            d="M147.842 180.807a4.882 4.882 0 0 1 2.185-.532 4.81 4.81 0 0 1 4.441 2.967 4.812 4.812 0 0 1-1.042 5.239 4.812 4.812 0 0 1-7.396-.728 4.81 4.81 0 0 1-.81-2.671"/>
      <path id="Vector_50" stroke-linecap="round" stroke-linejoin="round"
            d="M52.331 91.446c5.238 3.531 15.45.874 30.93-2.694"/>
      <path id="Vector_51" stroke-linecap="round" stroke-linejoin="round"
            d="M85.427 80.088c-1.121.228-2.156.7-2.014 1.558.163.986 2.052 2.164 7.657 2.641 6.46.549 8.884-.3 8.949-1.292.051-.779-1.311-1.634-3.439-1.9"/>
      <path id="Vector_52" stroke-linecap="round" stroke-linejoin="round"
            d="M86.757 59.264c4.237-.1 4.731 8.351.019 8.341-4.218-.005-4.176-8.247-.019-8.341Z"/>
      <path id="Vector_53" stroke-linecap="round" stroke-linejoin="round"
            d="M96.827 84.382c-.227-3.762-1.653-20.539-1.653-23.712 0-3.154 2.23-7.264 2.85-8.284.673-1.109.673-2.356.55-5.4-.052-1.33-1.112-1.371-2.032 1.672-.827 2.733-4.1 5.016-3.971-.247.077-3.059.567-7.3.665-8.455.2-2.376-1.07-2.581-1.786 0a69.616 69.616 0 0 0-1.73 7.3"/>
      <path id="Vector_54" stroke-linecap="round" stroke-linejoin="round"
            d="M89.778 46.781c-.247-3-.247-6.707-.266-7.866-.038-2.356-1.355-2.376-1.786.209-.443 2.659-.912 6.764-.969 8.436"/>
      <path id="Vector_55" stroke-linecap="round" stroke-linejoin="round"
            d="M86.854 46.1c-.52-2.934-.687-5.03-.819-6.158-.266-2.337-1.589-2.205-1.748.418a74.348 74.348 0 0 0-.038 8.151"/>
      <path id="Vector_56" stroke-linecap="round" stroke-linejoin="round"
            d="M84.211 47.712c-.741-2.869-.989-4.351-1.2-5.472-.42-2.261-1.567-2.014-1.558.551-.03 2.626.154 5.25.551 7.847.494 2.185 2.717 8.569 2.907 9.386"/>
      <path id="Vector_57" stroke-linecap="round" stroke-linejoin="round"
            d="M85.427 67.282c0 4.256-.038 13.623 0 15.979"/>
      <path id="Vector_58" stroke-linecap="round" stroke-linejoin="round"
            d="M89.911 62.057c.95 0 4.123-.285 5.244-1.007"/>
      <path id="Vector_59" stroke-linecap="round" stroke-linejoin="round"
            d="M89.607 65.876a13.26 13.26 0 0 0 5.757-.95"/>
      <path id="Vector_60" stroke-linecap="round" stroke-linejoin="round"
            d="M83.413 81.646c-.095 1.843-.171 7.695-.19 8.607"/>
      <path id="Vector_61" stroke-linecap="round" stroke-linejoin="round" d="M48.662 97.663a13.3 13.3 0 1 1 6.9-5.054"/>
      <path id="Vector_62" stroke-linecap="round" stroke-linejoin="round"
            d="M69.239 129.146c-.152-1.444-1.045-2.5-2-2.375-1.291.176-2.659 2.622-2.318 9.633.324 6.669 1.88 9.071 3.249 8.968 1.139-.085 2.147-1.805 2.147-4.826"/>
      <path id="Vector_63" stroke-linecap="round" stroke-linejoin="round"
            d="M65.382 129.412c4.636-.209 14.5-1.292 15.656-1.463 1.156-.171 8.838-5.61 10.906-6.023.552-.11 7.467.085 10.678.114 1.5.013 2.2 1.786-6.289 2.2"/>
      <path id="Vector_64" stroke-linecap="round" stroke-linejoin="round"
            d="M94.11 123.788c2.432.57 6.785 1.221 10.051 1.615 1.521.183.931 2.223-8.322 1.349"/>
      <path id="Vector_65" stroke-linecap="round" stroke-linejoin="round"
            d="M94.11 126.144c2.375.931 5.718 1.884 8.8 2.831 1.425.438.532 2.185-7.79.437"/>
      <path id="Vector_66" stroke-linecap="round" stroke-linejoin="round"
            d="M93.9 128.367c1.5 1.292 2.853 2.522 5.3 4.351 1.142.853.277 2.012-6.878-1.748-1.309-.688-2.338.911-3.667 2.527-1.749 2.127-2.356 3.9-6.973 4.845-5.092 1.046-13.737 2.717-16.131 3.059"/>
      <path id="Vector_67" stroke-linecap="round" stroke-linejoin="round"
            d="M83.66 126.543a27.9 27.9 0 0 0 4.313-7.505c.558-1.491 2.09-1.349.779 4.408"/>
      <path id="Vector_68" stroke-linecap="round" stroke-linejoin="round"
            d="M56 128.671c2.679-.418 8.645-1.558 11.267-1.919"/>
      <path id="Vector_69" stroke-linecap="round" stroke-linejoin="round"
            d="M68.194 145.391c-13.243 0-17.727.817-21.28-3.99-3.929-5.308.491-24.206 2.05-35.078 1.361-9.5-2.82-15.915-3.646-15.861-3.1.19-3.552-2.873-.608-2.28 1.5.3.133-1.843-1.007-3.211a19.793 19.793 0 0 0 5.244-4.1C56.6 87.1 58.01 92.039 49.992 91.45a16.8 16.8 0 0 0 6.688 1.5"/>
      <path id="Vector_70" stroke-linecap="round" stroke-linejoin="round"
            d="M32.19 80.6a7 7 0 1 0 0 8.819 13.492 13.492 0 0 1 0-8.819v0Z"/>
      <path id="Vector_71" stroke-linecap="round" stroke-linejoin="round"
            d="M60.366 127.93a79.309 79.309 0 0 1 5.529-14.5"/>
      <path id="Vector_72" stroke-linecap="round" stroke-linejoin="round"
            d="M48.833 107.087c7.169-2.845 12.5-7.923 13.673-14.158"/>
      <path id="Vector_73" stroke-linecap="round" stroke-linejoin="round"
            d="M64.394 94.832c5.225-.969 7.676-1.957 19.665 3.705 3.914-1.748 14.991-6.384 17.233-7.144"/>
      <path id="Vector_74" stroke-linecap="round" stroke-linejoin="round"
            d="M92.286 102.7c20.5-25.707 24.111-30.913 27.645-33 3.116-1.843 5.149-2.489 43.757-13.281"/>
      <path id="Vector_75" stroke-linecap="round" stroke-linejoin="round"
            d="M166.006 59.7c-.646-2.3-1.614-3.455-2.337-3.268-1.044.27-1.714 3.231-.665 9.747 1.1 6.822 2.793 9.5 3.952 9.4.931-.076 1.539-1.8 1.14-4.788"/>
      <path id="Vector_76" stroke-linecap="round" stroke-linejoin="round" d="M100.019 83c-.3 3-1.14 8.341-1.406 9.405"/>
      <path id="Vector_77" stroke-linecap="round" stroke-linejoin="round"
            d="M63.425 118.905c3.838-.7 10.925-2.014 16.777-3.686a28.91 28.91 0 0 0 6.213 7.163"/>
      <path id="Vector_78" stroke-linecap="round" stroke-linejoin="round"
            d="M84.059 98.518c1.387 3.971.4 12.369-3.876 16.7"/>
      <path id="Vector_79" stroke-linecap="round" stroke-linejoin="round"
            d="M102.546 125.213c13.053-1.425 22.344-26.676 28.025-38.779 12.578-3.762 28.272-8.645 36.4-10.849"/>
      <path id="Vector_80" stroke-linecap="round" stroke-linejoin="round"
            d="M164.2 71.443a46.965 46.965 0 0 1 11.875-.95c2.755-9.766 3.933-21.546 4.294-29.108-9.69 6.555-8.93 17.461-17.841 20.045"/>
      <path id="Vector_81" stroke-linecap="round" stroke-linejoin="round"
            d="M169.236 112.54c1.368-2.394.987-4.369.361-4.674-.932-.454-3.8 1.1-7.125 6.555-3.481 5.717-3.483 8.748-2.584 9.4.736.538 2.451-.152 4.047-2.584"/>
      <path id="Vector_82" stroke-linecap="round" stroke-linejoin="round"
            d="M160.211 118.943c4.921 2.394 5.225 4.237 8.018 6.251 6.859-.437 20.558-4.446 26.771-7.3-8.36-3.952-20.71-1.615-29.773-7.315"/>
      <path id="Vector_83" stroke-linecap="round" stroke-linejoin="round"
            d="M169.578 107.866c-6.308-5.016-28.557-20.8-32.832-23.294"/>
      <path id="Vector_84" stroke-linecap="round" stroke-linejoin="round"
            d="M159.888 123.826c-4.123-2.47-27.284-17.556-31.293-20.178-3.762 2.508-7.486 5.054-9.329 6.289"/>
      <path id="Vector_85" stroke-linecap="round" stroke-linejoin="round"
            d="M125.555 105.681c.988-3.116 2.451-11.78 3.1-14.991"/>
      <path id="Vector_86" stroke-linecap="round" stroke-linejoin="round"
            d="M65.382 114.478a41.39 41.39 0 0 0 7.638 2.527"/>
      <path id="Vector_87" d="m75.431 165.176-3.555.626 1.141 6.474 3.555-.626-1.14-6.474Z"/>
      <path id="Vector_88" d="m80.471 164.298-3.556.629 1.144 6.475 3.556-.628-1.144-6.476Z"/>
      <path id="Vector_89" d="m85.35 163.428-3.556.627 1.141 6.474 3.555-.626-1.14-6.475Z"/>
      <path id="Vector_90" d="m90.308 162.555-3.555.626 1.141 6.475 3.555-.627-1.14-6.474Z"/>
      <path id="Vector_91" d="m95.351 161.671-3.556.628 1.144 6.476 3.556-.629-1.144-6.475Z"/>
      <path id="Vector_92" d="m100.227 160.806-3.555.627 1.141 6.474 3.555-.626-1.141-6.475Z"/>
      <path id="Vector_93" d="m105.186 159.933-3.555.627 1.141 6.474 3.555-.627-1.141-6.474Z"/>
      <path id="Vector_94" d="m110.145 159.059-3.555.627 1.141 6.474 3.556-.627-1.142-6.474Z"/>
      <path id="Vector_95" d="m115.104 158.186-3.555.626 1.141 6.474 3.556-.626-1.142-6.474Z"/>
      <path id="Vector_96" d="m120.063 157.311-3.555.627 1.141 6.474 3.556-.627-1.142-6.474Z"/>
      <path id="Vector_97" d="m125.022 156.437-3.555.627 1.141 6.474 3.556-.626-1.142-6.475Z"/>
    </g>
  </g>
</svg>
