<svg width="253" height="56" fill="none" xmlns="http://www.w3.org/2000/svg">
  <path d="M49.68 50.361V16.765c0-1.744.397-3.053 1.193-3.925.795-.872 1.822-1.31 3.083-1.31 1.299 0 2.35.433 3.156 1.295.804.863 1.207 2.176 1.207 3.94v33.596c0 1.766-.403 3.083-1.207 3.955-.805.873-1.857 1.31-3.156 1.31-1.241 0-2.264-.44-3.07-1.323-.803-.883-1.206-2.196-1.206-3.942zM17.013 50.361V16.765c0-1.744.398-3.053 1.194-3.925.794-.872 1.821-1.31 3.082-1.31 1.299 0 2.351.433 3.156 1.295.804.863 1.207 2.176 1.207 3.94v33.596c0 1.766-.403 3.083-1.207 3.955-.805.873-1.857 1.31-3.156 1.31-1.241 0-2.264-.44-3.069-1.323-.804-.883-1.207-2.196-1.207-3.942zM79.232 16.708l16.61 25.13V16.476c0-1.648.353-2.884 1.06-3.708.707-.824 1.663-1.236 2.865-1.236 1.241 0 2.221.412 2.938 1.236.718.824 1.076 2.06 1.076 3.708v33.537c0 3.741-1.552 5.613-4.654 5.613-.776 0-1.474-.11-2.094-.333a5.316 5.316 0 01-1.745-1.063 10.21 10.21 0 01-1.512-1.701c-.465-.65-.93-1.313-1.397-1.993l-16.2-24.84V50.68c0 1.628-.379 2.86-1.135 3.694-.756.833-1.727 1.25-2.91 1.25-1.22 0-2.2-.421-2.937-1.264-.737-.844-1.105-2.07-1.105-3.68V17.784c0-1.396.155-2.49.465-3.287.368-.872.979-1.584 1.832-2.137a4.984 4.984 0 012.764-.83c.776 0 1.44.127 1.992.38.554.251 1.038.59 1.455 1.017.416.426.844.98 1.28 1.657.436.679.887 1.388 1.352 2.124zM141.332 18.917h-19.459V29.39h17.918c1.317 0 2.302.296 2.952.888.649.591.973 1.371.973 2.342 0 .969-.319 1.758-.959 2.369-.64.61-1.629.917-2.966.917h-17.918v12.128h20.128c1.356 0 2.379.316 3.068.946.688.63 1.032 1.469 1.032 2.516 0 1.009-.344 1.828-1.032 2.458-.689.631-1.712.946-3.068.946h-23.473c-1.881 0-3.233-.418-4.057-1.252-.824-.834-1.236-2.18-1.236-4.043V17.552c0-1.241.184-2.255.552-3.04a3.43 3.43 0 011.73-1.716c.786-.359 1.79-.539 3.011-.539h22.804c1.376 0 2.4.307 3.068.918.669.61 1.004 1.409 1.004 2.4 0 1.008-.335 1.817-1.004 2.428-.668.61-1.692.914-3.068.914zM151.396 46.61l9.54-13.934-8.028-12.39c-.756-1.202-1.324-2.235-1.701-3.098-.379-.863-.568-1.692-.568-2.488 0-.813.364-1.545 1.092-2.195.726-.649 1.613-.974 2.66-.974 1.202 0 2.138.353 2.808 1.061.668.71 1.594 2.021 2.777 3.941l6.399 10.355 6.836-10.355c.561-.872 1.041-1.618 1.438-2.238.398-.622.782-1.136 1.15-1.543.368-.407.78-.713 1.236-.916.456-.203.984-.305 1.586-.305 1.084 0 1.972.325 2.662.974.686.65 1.032 1.42 1.032 2.312 0 1.3-.747 3.064-2.242 5.294l-8.404 12.565 9.046 13.933c.813 1.222 1.406 2.235 1.774 3.04.367.804.552 1.566.552 2.282 0 .68-.165 1.3-.494 1.862a3.576 3.576 0 01-1.396 1.339c-.602.33-1.28.493-2.036.493-.815 0-1.503-.169-2.066-.508a4.397 4.397 0 01-1.366-1.265c-.35-.504-1-1.484-1.948-2.937l-7.506-11.811-7.969 12.159c-.621.97-1.061 1.649-1.324 2.036a7.662 7.662 0 01-.945 1.134c-.368.37-.806.659-1.308.872-.506.214-1.096.32-1.775.32-1.047 0-1.916-.32-2.604-.96-.688-.638-1.032-1.57-1.032-2.792 0-1.434.708-3.189 2.124-5.264zM193.659 55.625c-1.203 0-2.24-.388-3.112-1.162-.872-.776-1.308-1.863-1.308-3.259 0-1.181.416-2.2 1.249-3.055.833-.852 1.861-1.278 3.084-1.278 1.221 0 2.263.422 3.125 1.265.864.843 1.295 1.867 1.295 3.068 0 1.379-.431 2.459-1.295 3.244a4.367 4.367 0 01-3.038 1.177zM214.979 27.848v22.95c0 1.59-.378 2.791-1.134 3.606-.757.815-1.717 1.221-2.881 1.221-1.163 0-2.108-.417-2.836-1.25-.725-.834-1.089-2.026-1.089-3.578V28.081c0-1.57.364-2.753 1.089-3.549.728-.795 1.673-1.192 2.836-1.192 1.164 0 2.124.397 2.881 1.192.756.796 1.134 1.9 1.134 3.316zm-3.927-8.203c-1.104 0-2.049-.338-2.836-1.017-.785-.679-1.177-1.639-1.177-2.879 0-1.125.402-2.052 1.206-2.778.806-.727 1.74-1.09 2.807-1.09 1.028 0 1.939.328 2.735.987.794.66 1.192 1.62 1.192 2.881 0 1.222-.388 2.175-1.163 2.864-.776.69-1.697 1.032-2.764 1.032zM244.937 39.483c0-3.238-.712-5.759-2.138-7.563-1.426-1.803-3.339-2.705-5.744-2.705-1.552 0-2.919.402-4.102 1.206-1.182.806-2.094 1.994-2.733 3.564-.641 1.571-.961 3.403-.961 5.498 0 2.074.314 3.888.945 5.438.631 1.552 1.533 2.74 2.705 3.563 1.174.825 2.555 1.237 4.146 1.237 2.405 0 4.318-.906 5.744-2.72 1.426-1.812 2.138-4.318 2.138-7.518zm7.97 0c0 2.366-.37 4.546-1.106 6.545-.736 1.997-1.802 3.713-3.2 5.148-1.396 1.435-3.064 2.535-5.002 3.3-1.939.767-4.12 1.15-6.544 1.15-2.406 0-4.567-.389-6.486-1.163a14.382 14.382 0 01-4.989-3.331c-1.405-1.444-2.472-3.152-3.2-5.119-.727-1.969-1.089-4.146-1.089-6.53 0-2.404.366-4.606 1.105-6.603.735-1.997 1.792-3.703 3.169-5.12 1.378-1.415 3.044-2.505 5.004-3.272 1.958-.765 4.119-1.148 6.486-1.148 2.405 0 4.585.388 6.544 1.163 1.958.776 3.637 1.881 5.032 3.316 1.396 1.434 2.457 3.142 3.185 5.12.727 1.978 1.091 4.158 1.091 6.544z"
        fill="currentColor"/>
  <path d="M4 29.333h34.667c2.213 0 4 1.787 4 4 0 2.214-1.787 4-4 4H4c-2.213 0-4-1.786-4-4 0-2.213 1.787-4 4-4zM4 0h34.667c2.213 0 4 1.787 4 4s-1.787 4-4 4H4C1.787 8 0 6.213 0 4s1.787-4 4-4z"
        fill="currentColor"/>
</svg>